<?xml version="1.0" encoding="UTF-8" standalone="no"?>
<!DOCTYPE svg PUBLIC "-//W3C//DTD SVG 1.1//EN" "http://www.w3.org/Graphics/SVG/1.1/DTD/svg11.dtd">
<svg width="100%" height="100%" viewBox="0 0 347 334" version="1.1" xmlns="http://www.w3.org/2000/svg" xmlns:xlink="http://www.w3.org/1999/xlink" xml:space="preserve" xmlns:serif="http://www.serif.com/" style="fill-rule:evenodd;clip-rule:evenodd;stroke-linejoin:round;stroke-miterlimit:2;">
    <g transform="matrix(1,0,0,1,-345.346,-361.45)">
        <path d="M500.107,362.072C458.739,366.748 422.719,384.199 392.981,413.97C383.441,423.521 371.439,438.607 368.446,444.81C366.983,447.843 366.983,448.325 368.448,450.56C371.532,455.268 374.17,453.876 381.356,443.75C403.647,412.34 437.675,387.824 472.586,378.022C492.947,372.304 516.392,370.528 537.5,373.104C556.29,375.396 581.901,384.861 599.953,396.183C639.09,420.731 668.2,463.414 674.505,505.5C677.298,524.143 677.066,523.458 680.688,523.809C683.124,524.045 684.236,523.57 685.397,521.798C686.748,519.736 686.755,518.248 685.464,508.389C677.129,444.737 626.238,386.521 562.755,368.018C557.115,366.375 548.45,364.331 543.5,363.477C532.146,361.517 511.051,360.834 500.107,362.072M539.309,381.25C537.974,383.313 537.713,458.151 538.997,470.5C541.084,490.566 546.883,511.985 554.064,526.153C561.489,540.804 575.766,557.036 590.355,567.413L598.21,573L558,573L558,577C558,580.445 557.688,581.017 555.75,581.122C554.513,581.19 532.366,581.165 506.536,581.067C474.978,580.948 459.15,580.539 458.286,579.822C456.437,578.288 456.702,575.579 458.896,573.594C460.752,571.914 460.744,571.793 458.475,567.689C454.078,559.735 452.619,552.482 452.706,539C452.836,518.806 457.32,502.054 468.983,478.185C479.374,456.918 496.053,433.216 519.428,406.5C531.758,392.408 533.987,388.894 532.064,386.577C531.344,385.71 530.146,385 529.402,385C528.658,385 523.426,388.862 517.775,393.583C493.619,413.759 478.9,428.907 463.679,449.25C455.968,459.557 455.483,460 451.907,460C448.48,460 448.003,459.638 446.009,455.519C442.714,448.712 435.634,441.459 429.203,438.3C424.239,435.863 422.333,435.5 414.5,435.5C406.696,435.5 404.752,435.867 399.875,438.262C390.887,442.676 382.446,452.932 380.542,461.751C380.015,464.195 379.178,465.148 377.17,465.591C363.103,468.693 353.358,477.774 348.898,491.938C345.982,501.196 345.119,518.006 347.382,521.46C349.173,524.194 353.064,524.876 354.741,522.75C355.283,522.063 356,516.491 356.333,510.368C357.546,488.109 366.007,476.701 382.5,475.087L388.5,474.5L389.355,469.5C391.166,458.916 395.117,452.88 403.057,448.563C416.136,441.451 430.448,446.88 437.415,461.594L439.974,467L445.487,467C448.519,467 451,467.225 451,467.499C451,467.774 448.285,473.393 444.966,479.986C434.449,500.881 428.397,519.437 426.08,537.891C425.577,541.893 424.973,545.36 424.737,545.596C424.502,545.832 419.627,543.822 413.904,541.129C402.574,535.798 396.456,533.992 389.807,534.015C382.607,534.039 373.214,536.796 363.854,541.63L354.958,546.224L358.181,555.873L368.002,550.902C384.758,542.421 393.007,542.278 409.162,550.188C413.748,552.433 419.3,554.82 421.5,555.493L425.5,556.716L426.146,563.108C426.501,566.624 426.951,570.377 427.146,571.449C427.493,573.359 426.506,573.399 377.664,573.449C377.664,573.449 329.333,586 350.878,586C374.601,586 374.81,586.035 376.322,590.273C377.301,593.015 373.666,596.083 370.248,595.4C368.194,594.989 366.947,595.402 365.537,596.959C363.642,599.053 363.651,599.139 366.4,604.788C367.928,607.93 372.038,614.775 375.533,620C415.576,679.866 492.944,708.218 562,688.333C605.562,675.789 642.467,647.182 663.944,609.312C669.706,599.153 670.021,596.397 665.692,594.033C662.999,592.563 662.783,592.615 660.46,595.285C658.108,597.987 657.96,598.02 655.477,596.393C651.066,593.502 649.969,590.174 652.571,587.571C653.919,586.224 657.827,586 680,586C702.173,586 685.28,574.342 683.812,575.67C682.174,577.153 681.214,577.202 675.234,576.113C660.329,573.397 636.349,563.717 618.047,553.028C614.063,550.701 611.185,548.437 611.652,547.996C613.755,546.011 622.999,543.889 629.542,543.889C637.807,543.889 643.758,545.846 654.008,551.936L660.85,556L665.5,546.382L654.884,540.83C635.512,530.697 626.802,530.58 603.127,540.138L599.754,541.5L591.774,533C577.936,518.26 567.428,500.766 560.559,481.032C552.204,457.027 549.136,438.095 548.319,405.5C547.998,392.722 547.301,381.944 546.749,381.25C546.202,380.563 544.487,380 542.937,380C541.386,380 539.754,380.563 539.309,381.25M528.172,408.886C517.518,420.06 500.922,443.928 491.24,462C472.147,497.639 464.39,537.79 471.919,562C475.361,573.065 475.263,573 488.557,573C494.851,573 500,572.587 500,572.082C500,571.577 498.881,568.936 497.513,566.212C492.758,556.746 491.593,549.921 491.589,531.5C491.586,517.931 492.034,512.256 493.806,503.38C498.72,478.776 505.964,459.446 521.613,429.181C532.396,408.327 534.289,402.47 528.172,408.886M528.656,433.831C521.141,450.577 513.807,475.682 510.349,496.5C508.996,504.645 508.545,512.431 508.611,526.5C508.703,546.42 509.627,551.984 515.624,568.74L517.5,573.98L527.691,573.99C533.296,573.996 538.152,573.562 538.483,573.028C538.813,572.493 537.292,568.33 535.101,563.778C527.181,547.318 524.603,531.951 524.739,502C524.84,479.931 526.266,463.765 530.106,441.183C531.257,434.409 531.996,428.662 531.746,428.412C531.496,428.163 530.106,430.601 528.656,433.831M616.314,449.95C612.632,452.195 611,454.801 611,458.434C611,461.518 612.066,461.69 614.5,459C617.334,455.868 622.28,456.356 625.411,460.077C626.835,461.769 628,464.056 628,465.16C628,466.264 628.337,466.993 628.75,466.781C636.277,462.906 638.592,462.58 644.75,464.523C646.754,465.156 647,464.892 647,462.117C647,457.668 643.818,454.806 639.3,455.193C636.282,455.451 635.121,454.906 631.974,451.75C628.791,448.558 627.586,448.001 623.868,448.004C621.309,448.006 618.18,448.812 616.314,449.95M587.84,467.022C583.148,469.501 580.175,473.316 578.732,478.712C577.764,482.331 577.189,483.002 575.043,483.014C570.075,483.04 568,484.114 568,486.657C568,489.047 568.112,489.077 576.142,488.79L584.284,488.5L585.542,483.534C587.054,477.567 590.717,474 595.333,474C601.582,474 606.476,480.466 604.127,485.62C603.493,487.011 603.232,488.566 603.546,489.075C604.174,490.091 660.815,490.392 663.418,489.393C667.948,487.655 663.855,484.132 641.336,470.388C639.376,469.191 638.162,469.674 628.406,475.534C622.484,479.09 617.327,482 616.945,482C616.563,482 616.001,480.762 615.697,479.25C613.46,468.113 598.339,461.476 587.84,467.022M546.667,591.407C548.959,592.718 552.912,595.219 555.451,596.966C567.096,604.978 574.115,605.887 598.439,602.531C618.259,599.797 625.153,600.886 639.269,608.98C644.084,611.741 648.364,614 648.78,614C649.196,614 650.279,612.777 651.186,611.282L652.835,608.565L644.167,603.256C628.769,593.824 618.586,592.243 594.784,595.584C588.578,596.456 580.066,597.017 575.869,596.832C568.954,596.528 567.726,596.144 562.796,592.748C557.699,589.238 556.883,589.001 549.927,589.012L542.5,589.024L546.667,591.407M424.5,592.797C421.75,592.96 411.85,594.393 402.5,595.982C393.15,597.571 383.137,599.167 380.25,599.529C377.363,599.891 375,600.413 375,600.689C375,600.965 375.938,602.509 377.085,604.119C379.053,606.883 379.457,607.012 384.335,606.436C387.176,606.1 396.649,604.514 405.387,602.912C428.765,598.627 438.49,599.137 450.588,605.284C465.398,612.809 475.259,613.794 498.683,610.086C522.222,606.361 531.664,607.553 545.975,616.054C559.634,624.169 570.917,625.749 592,622.5C609.747,619.765 618.741,620.814 631.123,627.063L636.745,629.9L638.873,627.636C640.043,626.39 641,625.085 641,624.734C641,623.476 628.375,617.123 622.5,615.425C614.769,613.191 603.201,613.204 586.074,615.465C567.664,617.895 565.259,617.478 548.454,608.95C528.902,599.027 525.639,598.597 498.855,602.421C476.115,605.668 470.457,605.532 460.926,601.51C457.392,600.018 451.88,597.688 448.679,596.33C442.527,593.723 432.815,592.303 424.5,592.797M395.639,618.566C391.315,619.294 387.647,620.026 387.486,620.194C387.326,620.363 388.389,621.906 389.848,623.624L392.5,626.748L402,625.232C415.449,623.086 422.743,624.265 436.692,630.841C454.258,639.122 458.627,639.447 487.027,634.586C507.32,631.112 513.498,630.64 521,631.992C528.582,633.359 533.281,635.564 545.297,643.396C559.689,652.776 565.405,653.971 584.089,651.505C590.915,650.604 600.606,650.009 605.624,650.183C614.162,650.478 614.99,650.327 618.498,647.83L622.248,645.162L618.374,644.029C611.284,641.955 599.96,641.716 588.04,643.39C574.489,645.294 566.563,645.431 561.899,643.842C560.03,643.205 553.775,639.695 548,636.042C532.172,626.03 526.372,624.008 513.5,624.016C509.1,624.019 499.65,624.959 492.5,626.106C458.112,631.621 456.011,631.543 440.21,624.151C434.32,621.396 427.7,618.662 425.5,618.076C420.225,616.672 405.46,616.914 395.639,618.566M403.677,635.868L400.854,636.5L403.677,639.123C405.839,641.132 407.905,641.881 412.5,642.321C417.299,642.78 421.403,644.356 432.999,650.19L447.498,657.485L457.999,657.839C465.967,658.107 471.997,657.587 483,655.68C504.505,651.953 506.336,651.792 513.135,653.024C520.087,654.285 525.543,656.804 536.068,663.613C546.177,670.152 552.095,672 562.926,672C567.862,672 574.286,671.517 577.201,670.926C582.156,669.922 597,663.218 597,661.984C597,661.329 584.489,662.396 574.5,663.904C564.781,665.371 556.972,665.254 552.202,663.571C549.974,662.785 543.858,659.41 538.61,656.07C519.571,643.954 512.517,642.946 482,647.983C455.511,652.355 453.249,652.142 437,643.73C421.477,635.694 413.192,633.739 403.677,635.868M475.664,672.476C469.705,673.225 464.598,674.069 464.316,674.351C462.897,675.77 475.803,678.309 487.5,678.913C497.993,679.454 502.081,680.129 508.697,682.413C515.344,684.708 517.787,685.109 521.625,684.534L526.356,683.824L519.428,679.914C505.643,672.133 494.054,670.163 475.664,672.476" style="fill:rgb(25,25,25);"/>
    </g>
</svg>
